<?xml version="1.0" encoding="UTF-8"?>
<!DOCTYPE svg PUBLIC "-//W3C//DTD SVG 1.1//EN" "http://www.w3.org/Graphics/SVG/1.1/DTD/svg11.dtd">
<svg viewBox="0 0 768.000000 768.000000" xmlns="http://www.w3.org/2000/svg">
    <defs>
        <linearGradient id="myGradient" gradientTransform="rotate(55)">
            <stop offset="25%" stop-color="#4de9da"/>
            <stop offset="95%" stop-color="#6557f5"/>
        </linearGradient>
    </defs>
    <circle cx="384" cy="384" r="350" fill="url('#myGradient')"/>
    <g transform="translate(0.000000,768.000000) scale(0.100000,-0.100000)"
       fill="#000000" stroke="none">
        <path d="M3845 6190 l-38 -39 -5 -113 c-3 -65 -10 -121 -17 -133 -7 -11 -16
-42 -20 -70 -4 -27 -13 -61 -20 -75 -7 -14 -16 -54 -19 -90 -4 -35 -11 -72
-16 -81 -5 -9 -14 -59 -20 -110 -6 -52 -17 -112 -25 -134 -8 -22 -17 -69 -20
-104 -3 -35 -12 -80 -20 -100 -7 -20 -16 -60 -20 -90 -3 -30 -10 -62 -15 -71
-5 -10 -16 -46 -23 -81 -24 -106 -68 -210 -122 -289 -17 -25 -34 -52 -37 -61
-3 -8 -31 -52 -62 -97 -31 -46 -56 -86 -56 -89 0 -5 -284 -436 -303 -458 -4
-5 -17 -25 -27 -42 l-20 -33 -246 0 c-223 0 -254 -2 -326 -22 -72 -20 -86 -27
-138 -80 -49 -48 -60 -66 -66 -103 -11 -78 1 -112 54 -146 l47 -30 200 3 c196
3 200 3 203 -18 2 -13 -10 -34 -29 -55 -17 -19 -45 -60 -61 -91 -16 -32 -33
-60 -38 -63 -6 -4 -10 -14 -10 -24 0 -10 -9 -30 -20 -44 -11 -14 -20 -31 -20
-39 0 -7 -9 -30 -20 -51 -11 -20 -20 -42 -20 -49 0 -6 -8 -30 -18 -52 -22 -50
-49 -125 -67 -189 -7 -26 -18 -53 -23 -60 -5 -7 -13 -32 -17 -57 -4 -24 -13
-54 -20 -65 -7 -11 -16 -38 -20 -60 -4 -21 -12 -51 -20 -65 -7 -14 -16 -46
-19 -73 -4 -26 -14 -59 -22 -75 -7 -15 -14 -36 -14 -47 0 -11 -9 -49 -19 -85
-28 -91 -50 -185 -62 -255 -5 -33 -16 -80 -23 -105 -8 -25 -17 -72 -21 -105
-3 -33 -11 -73 -17 -88 -9 -23 -8 -31 5 -44 15 -15 19 -14 52 11 46 35 293
283 365 366 30 35 77 88 104 119 48 55 115 132 139 161 18 22 145 182 162 205
8 11 41 54 73 96 31 41 62 82 67 91 6 9 25 37 43 62 17 26 32 51 32 55 0 5 7
14 15 21 8 6 31 45 51 86 20 41 40 77 45 79 4 3 11 20 15 38 3 17 13 41 20 52
8 11 14 26 14 35 0 9 9 33 19 54 11 21 23 52 27 69 4 18 12 41 19 52 7 11 16
36 20 55 4 19 13 44 20 55 7 11 16 41 20 67 4 30 13 51 23 57 10 5 87 6 187 1
208 -10 795 -4 925 9 63 7 98 7 105 0 10 -10 24 -116 50 -384 8 -82 19 -177
25 -210 5 -33 12 -121 16 -195 3 -74 11 -155 19 -180 7 -25 19 -124 25 -220 7
-96 15 -179 18 -185 4 -5 12 -73 19 -150 7 -77 17 -162 22 -190 6 -27 13 -79
16 -115 10 -113 34 -200 55 -200 6 0 24 25 42 56 18 31 43 72 55 92 12 21 25
44 28 52 13 30 25 55 34 70 5 8 14 26 20 40 6 14 15 32 19 40 5 8 18 35 29 60
11 25 32 70 47 100 14 30 26 62 26 70 0 8 7 24 15 34 8 11 15 27 15 35 0 9 12
39 25 66 14 28 25 57 25 65 0 8 7 24 15 34 8 11 15 29 15 41 0 11 8 36 19 55
10 19 21 53 25 74 4 21 13 48 21 60 7 12 16 39 20 61 4 21 12 51 19 65 8 14
16 48 20 77 4 29 13 71 21 94 19 54 20 210 1 247 -7 15 -17 47 -21 72 -4 25
-13 54 -20 66 -8 12 -17 39 -21 60 -3 21 -12 46 -19 54 -7 8 -16 31 -20 50 -4
19 -13 44 -19 55 -7 11 -16 34 -20 50 -4 17 -17 40 -28 52 -31 33 -20 58 27
61 22 1 69 7 105 13 36 6 119 17 185 24 66 8 149 18 185 24 36 5 104 13 153
16 61 5 87 11 87 20 0 7 -7 15 -15 19 -8 3 -128 2 -267 -2 -139 -4 -314 -7
-388 -7 l-134 0 -19 50 c-11 28 -28 68 -38 91 -11 23 -19 48 -19 56 0 9 -6 21
-14 27 -8 7 -18 27 -21 44 -4 18 -16 46 -26 63 -10 17 -19 40 -19 51 0 12 -7
26 -15 33 -8 7 -17 27 -21 46 -3 18 -12 38 -20 45 -7 6 -16 26 -20 45 -3 18
-12 38 -19 44 -8 6 -17 26 -21 43 -3 18 -12 43 -20 57 -7 14 -25 52 -39 85
-35 79 -64 142 -87 186 -10 20 -18 43 -18 52 0 8 -6 20 -14 26 -8 7 -18 27
-21 44 -4 18 -13 39 -20 47 -7 8 -16 29 -20 47 -3 17 -13 37 -20 43 -8 7 -17
27 -21 46 -3 18 -12 38 -20 45 -7 6 -16 26 -20 45 -3 18 -12 38 -20 45 -7 6
-16 26 -20 45 -3 18 -12 38 -20 45 -8 6 -14 16 -14 22 0 11 -40 102 -71 158
-10 20 -19 43 -19 52 0 8 -7 20 -15 27 -8 7 -17 27 -21 46 -3 18 -12 38 -20
45 -8 6 -14 16 -14 22 0 6 -8 29 -19 51 -56 122 -71 156 -71 164 0 5 -6 15
-14 21 -8 7 -18 27 -22 44 -3 18 -15 43 -25 56 -11 13 -19 27 -19 32 0 18
-108 164 -158 215 -52 53 -137 104 -171 104 -9 0 -34 -18 -56 -40z m209 -863
c14 -19 29 -49 32 -68 4 -19 15 -45 26 -58 10 -13 18 -32 18 -42 0 -10 4 -20
9 -23 8 -5 136 -258 155 -306 3 -8 10 -22 15 -30 8 -13 39 -80 76 -165 7 -16
25 -56 39 -87 14 -31 26 -63 26 -71 0 -8 6 -20 14 -26 8 -6 19 -31 25 -56 6
-24 15 -46 20 -50 6 -3 13 -27 16 -53 3 -26 12 -65 20 -87 8 -22 18 -80 24
-130 5 -49 17 -121 25 -160 9 -38 16 -100 16 -136 0 -36 5 -80 11 -98 18 -52
5 -58 -139 -64 -70 -4 -170 -9 -223 -13 -74 -5 -108 -3 -145 9 -27 8 -70 18
-95 22 -26 3 -55 12 -65 20 -11 8 -28 15 -39 15 -12 0 -38 9 -60 20 -22 11
-46 20 -55 20 -8 0 -30 9 -48 20 -18 11 -67 25 -109 31 -127 18 -153 37 -116
87 11 15 23 45 27 66 4 22 14 49 22 60 8 11 14 32 14 46 0 14 9 43 20 65 11
22 20 48 20 60 0 11 9 40 20 64 11 24 20 51 20 60 0 9 9 33 20 54 11 20 20 43
20 50 0 7 9 29 20 50 11 20 20 43 20 51 0 7 8 24 19 37 10 13 21 40 25 60 4
21 13 42 21 49 8 7 15 22 15 34 0 12 9 39 19 59 11 21 23 57 26 80 4 23 13 53
20 67 7 14 15 46 19 72 4 26 13 60 21 75 7 15 16 54 20 86 4 32 13 74 21 92 8
19 14 59 14 89 0 94 20 111 64 53z"/>
    </g>
</svg>